<?xml version="1.0" encoding="utf-8"?>
<!-- Generator: Adobe Illustrator 28.1.0, SVG Export Plug-In . SVG Version: 6.00 Build 0)  -->
<svg version="1.1" id="Layer_1" xmlns="http://www.w3.org/2000/svg" xmlns:xlink="http://www.w3.org/1999/xlink" x="0px" y="0px"
	 viewBox="0 0 1920 500" style="enable-background:new 0 0 1920 500;" xml:space="preserve">
<style type="text/css">
	.st0{fill:#0B3F77;}
	.st1{fill:#FF7578;}
	.st2{fill:#FFFFFF;}
</style>
<g>
	<g>
		<g>
			<g>
				<path class="st0" d="M257.6,57.6C155.8,62.7,74.8,146.8,74.8,249.9c0,17,2.2,33.4,6.3,49.1l0,0l0.1,0.2
					c3.5,13.4,8.5,26.2,14.7,38.3l0.1-0.1l0.2,0.6l161.4-93.3v-92.6h-79.1l-28,38.9h67.9v32.1L117.2,279c-1.8-9.4-2.8-19.2-2.8-29.2
					c0-67.3,43.5-124.5,104-144.9v26.4h39.2V97.3L257.6,57.6L257.6,57.6L257.6,57.6z"/>
				<path class="st0" d="M277.1,57.6c101.8,5.1,182.8,89.2,182.8,192.3c0,17-2.2,33.4-6.3,49.1l0,0l-0.1,0.2
					c-3.5,13.4-8.5,26.2-14.7,38.3l-0.1-0.1l-0.2,0.6l-161.4-93.3v-92.6h79.1l28,38.9h-67.9v32.1L417.4,279
					c1.8-9.4,2.8-19.2,2.8-29.2c0-67.3-43.5-124.5-104-144.9v26.4h-39.2V97.3L277.1,57.6L277.1,57.6L277.1,57.6z"/>
				<path class="st1" d="M428.7,355L428.7,355L428.7,355l-33.7-19.4v0l-27.4-15.8l-35.9,23.1l38,21.7c-27.2,24.3-63,39-102.3,39
					c-39.3,0-75.2-14.8-102.3-39l37.9-21.6L167,319.8L105.9,355l2.2,3.1c34.7,50.9,93,84.3,159.2,84.3
					C334.9,442.4,394.3,407.6,428.7,355L428.7,355z"/>
			</g>
		</g>
		<g>
			<g>
				<g>
					<path class="st1" d="M905.9,170.1c0,2.3-1.4,3.6-3.6,3.6h-22.7c-2.5,0-3.6-1.4-3.6-3.6v-18.2c0-5.9-3.2-9.1-9.1-9.1H855
						c-6.1,0-9.1,3.2-9.1,9.1v103.7c0,6.1,3.2,9.1,9.1,9.1h11.8c5.9,0,9.1-3,9.1-9.1v-18.2c0-2.3,1.1-3.6,3.6-3.6h22.7
						c2.3,0,3.6,1.4,3.6,3.6V262c0,21.4-11.6,32.8-32.8,32.8h-25.5c-21.4,0-33-11.4-33-32.8V145.5c0-21.4,11.6-32.8,33-32.8h25.5
						c21.2,0,32.8,11.4,32.8,32.8V170.1z"/>
					<path class="st1" d="M928.7,145.5c0-21.4,11.4-32.8,32.8-32.8h25.5c21.4,0,32.8,11.4,32.8,32.8V262c0,21.4-11.4,32.8-32.8,32.8
						h-25.5c-21.4,0-32.8-11.4-32.8-32.8V145.5z M981.2,265.4c5.9,0,9.1-3,9.1-9.1V151.2c0-5.9-3.2-9.1-9.1-9.1H968
						c-5.9,0-9.1,3.2-9.1,9.1v105.1c0,6.1,3.2,9.1,9.1,9.1H981.2z"/>
					<path class="st1" d="M1167.5,112.8c3,0,4.6,1.6,4.6,4.6v172.9c0,3-1.6,4.5-4.6,4.5h-21.2c-3,0-4.5-1.6-4.5-4.5V187.8h-1.6
						l-22.5,102.8c-0.7,2.7-2.3,4.1-5,4.1h-11.1c-2.7,0-4.3-1.4-5-4.1L1074,187.8h-1.6v102.4c0,3-1.6,4.5-4.5,4.5h-20.9
						c-3,0-4.5-1.6-4.5-4.5V117.3c0-3,1.6-4.6,4.5-4.6h30c2.7,0,4.3,1.4,5,4.1l25.3,113.3l25.3-113.3c0.7-2.7,2.3-4.1,5-4.1H1167.5z
						"/>
					<path class="st1" d="M1319.9,112.8c3,0,4.6,1.6,4.6,4.6v172.9c0,3-1.6,4.5-4.6,4.5h-21.2c-3,0-4.5-1.6-4.5-4.5V187.8h-1.6
						l-22.5,102.8c-0.7,2.7-2.3,4.1-5,4.1H1254c-2.7,0-4.3-1.4-5-4.1l-22.5-102.8h-1.6v102.4c0,3-1.6,4.5-4.6,4.5h-20.9
						c-3,0-4.5-1.6-4.5-4.5V117.3c0-3,1.6-4.6,4.5-4.6h30c2.7,0,4.3,1.4,5,4.1l25.3,113.3l25.3-113.3c0.7-2.7,2.3-4.1,5-4.1H1319.9z
						"/>
					<path class="st1" d="M1433.7,112.8c2.5,0,4.6,2,4.6,4.6V262c0,21.4-11.4,32.8-32.8,32.8H1380c-21.4,0-32.8-11.4-32.8-32.8
						V117.3c0-2.5,2-4.6,4.5-4.6h21.8c2.5,0,4.6,2,4.6,4.6v138.3c0,6.1,3.2,9.1,9.1,9.1h11.8c5.9,0,9.1-3,9.1-9.1V117.3
						c0-2.5,2-4.6,4.6-4.6H1433.7z"/>
					<path class="st1" d="M1554.5,112.8c2.3,0,3.6,1.4,3.6,3.6v174.7c0,2.3-1.4,3.6-3.6,3.6h-22.5c-2,0-3.4-0.9-4.1-3l-34.8-97.1
						h-1.1v96.5c0,2.3-1.1,3.6-3.6,3.6h-23.7c-2.3,0-3.6-1.4-3.6-3.6V116.4c0-2.3,1.4-3.6,3.6-3.6h22.5c2,0,3.4,0.9,4.1,3l34.6,96.7
						h1.4v-96c0-2.3,1.1-3.6,3.6-3.6H1554.5z"/>
					<path class="st1" d="M1608.1,112.8c2.3,0,3.6,1.4,3.6,3.6v174.7c0,2.3-1.4,3.6-3.6,3.6h-23.7c-2.5,0-3.6-1.4-3.6-3.6V116.4
						c0-2.3,1.1-3.6,3.6-3.6H1608.1z"/>
					<path class="st1" d="M1717.3,112.8c2.5,0,3.6,1.4,3.6,3.6v22.7c0,2.3-1.1,3.6-3.6,3.6H1691v148.3c0,2.5-1.1,3.6-3.6,3.6h-23.7
						c-2.3,0-3.6-1.1-3.6-3.6V142.8h-26.4c-2.3,0-3.6-1.4-3.6-3.6v-22.7c0-2.3,1.4-3.6,3.6-3.6H1717.3z"/>
					<path class="st1" d="M1841.1,112.8c3.4,0,5,2,3.6,5.2l-41.6,101.2v71c0,3-1.6,4.5-4.6,4.5h-21.8c-3,0-4.5-1.6-4.5-4.5v-71
						L1730.5,118c-1.4-3.2,0.2-5.2,3.6-5.2h22.7c2.7,0,4.3,1.1,5.2,3.6l25.5,65.3l25.5-65.3c0.9-2.5,2.5-3.6,5.2-3.6H1841.1z"/>
				</g>
			</g>
			<g>
				<rect x="522" y="318.7" class="st0" width="1323.3" height="70.8"/>
				<g>
					<g>
						<path class="st2" d="M567.9,339.3v11.1h14.8v7h-14.8V369h16.7v7.2H559v-44.2h25.6v7.2H567.9z"/>
						<path class="st2" d="M662.8,332.1v44.1H654v-28.7l-11.8,28.7h-6.7l-11.9-28.7v28.7h-8.8v-44.1h10l14,32.8l14-32.8H662.8z"/>
						<path class="st2" d="M724.1,352.4c-1.1,2.1-2.9,3.7-5.2,5c-2.4,1.3-5.4,1.9-9,1.9h-7.4v16.9h-8.8v-44.1h16.2
							c3.4,0,6.3,0.6,8.7,1.8c2.4,1.2,4.2,2.8,5.4,4.9c1.2,2.1,1.8,4.4,1.8,7C725.8,348.1,725.3,350.4,724.1,352.4z M715,350.5
							c1.2-1.1,1.8-2.7,1.8-4.7c0-4.3-2.4-6.4-7.2-6.4h-7v12.8h7C712,352.2,713.8,351.6,715,350.5z"/>
						<path class="st2" d="M763.3,373.8c-3.5-1.9-6.2-4.6-8.2-8.1c-2-3.4-3-7.3-3-11.7c0-4.3,1-8.2,3-11.6c2-3.4,4.8-6.1,8.2-8.1
							c3.5-1.9,7.2-2.9,11.4-2.9c4.2,0,8,1,11.4,2.9c3.4,1.9,6.1,4.6,8.1,8.1c2,3.4,3,7.3,3,11.6c0,4.3-1,8.2-3,11.7
							c-2,3.4-4.7,6.1-8.2,8.1c-3.5,1.9-7.2,2.9-11.4,2.9S766.7,375.7,763.3,373.8z M781.7,367c2-1.2,3.6-2.9,4.7-5.1
							c1.1-2.2,1.7-4.8,1.7-7.8s-0.6-5.5-1.7-7.7c-1.1-2.2-2.7-3.9-4.7-5.1c-2-1.2-4.4-1.8-7-1.8c-2.7,0-5,0.6-7,1.8
							c-2,1.2-3.6,2.9-4.8,5.1c-1.1,2.2-1.7,4.8-1.7,7.7s0.6,5.5,1.7,7.8c1.1,2.2,2.7,3.9,4.8,5.1c2,1.2,4.4,1.8,7,1.8
							C777.3,368.8,779.6,368.2,781.7,367z"/>
						<path class="st2" d="M884.8,332.1l-12.3,44.1h-10.4l-8.3-31.4l-8.7,31.4l-10.4,0.1l-11.9-44.2h9.5l7.8,34.2l9-34.2h9.9
							l8.5,34.1l7.8-34.1H884.8z"/>
						<path class="st2" d="M921.5,339.3v11.1h14.8v7h-14.8V369h16.7v7.2h-25.6v-44.2h25.6v7.2H921.5z"/>
						<path class="st2" d="M991.2,376.2l-9.7-17.2h-4.2v17.2h-8.8v-44.1H985c3.4,0,6.3,0.6,8.7,1.8c2.4,1.2,4.2,2.8,5.4,4.9
							c1.2,2,1.8,4.3,1.8,6.9c0,2.9-0.8,5.5-2.5,7.9c-1.7,2.3-4.2,3.9-7.5,4.8l10.5,17.9H991.2z M977.3,352.4h7.4
							c2.4,0,4.2-0.6,5.4-1.7c1.2-1.2,1.8-2.8,1.8-4.8c0-2-0.6-3.6-1.8-4.7c-1.2-1.1-3-1.7-5.4-1.7h-7.4V352.4z"/>
						<path class="st2" d="M1039.9,332.1v44.1h-8.8v-44.1H1039.9z"/>
						<path class="st2" d="M1108.4,376.2h-8.8l-20-30.3v30.3h-8.8v-44.2h8.8l20,30.3v-30.3h8.8V376.2z"/>
						<path class="st2" d="M1169.9,345.4c-1-1.9-2.4-3.3-4.2-4.2c-1.8-1-3.8-1.5-6.2-1.5c-2.6,0-4.9,0.6-6.9,1.8
							c-2,1.2-3.6,2.9-4.7,5.1c-1.1,2.2-1.7,4.7-1.7,7.6c0,2.9,0.6,5.5,1.7,7.7c1.2,2.2,2.8,3.9,4.8,5.1c2.1,1.2,4.5,1.8,7.2,1.8
							c3.4,0,6.1-0.9,8.3-2.7c2.1-1.8,3.6-4.3,4.2-7.5h-15.2v-6.8h23.9v7.7c-0.6,3.1-1.9,5.9-3.8,8.5c-1.9,2.6-4.4,4.7-7.5,6.3
							c-3.1,1.6-6.5,2.4-10.3,2.4c-4.3,0-8.1-1-11.5-2.9c-3.4-1.9-6.1-4.6-8.1-8c-2-3.4-2.9-7.3-2.9-11.6c0-4.3,1-8.2,2.9-11.7
							c2-3.4,4.7-6.1,8.1-8c3.4-1.9,7.3-2.9,11.5-2.9c5,0,9.3,1.2,13,3.6c3.7,2.4,6.2,5.8,7.6,10.2H1169.9z"/>
						<path class="st2" d="M1278.2,357.3c1.6,2,2.4,4.3,2.4,6.9c0,2.4-0.6,4.4-1.7,6.2c-1.2,1.8-2.8,3.2-5,4.2
							c-2.2,1-4.8,1.5-7.8,1.5h-19v-44.1h18.2c3,0,5.6,0.5,7.7,1.5c2.2,1,3.8,2.3,4.9,4c1.1,1.7,1.7,3.7,1.7,5.9
							c0,2.6-0.7,4.7-2.1,6.4c-1.4,1.7-3.2,2.9-5.5,3.7C1274.5,354.1,1276.6,355.3,1278.2,357.3z M1255.9,350.3h8.1
							c2.1,0,3.7-0.5,4.9-1.4c1.1-0.9,1.7-2.3,1.7-4.1c0-1.8-0.6-3.1-1.7-4.1c-1.1-1-2.8-1.5-4.9-1.5h-8.1V350.3z M1269.8,367.5
							c1.2-1,1.8-2.4,1.8-4.3c0-1.9-0.6-3.4-1.9-4.5c-1.3-1.1-3-1.6-5.1-1.6h-8.7V369h8.9C1266.9,369,1268.6,368.5,1269.8,367.5z"/>
						<path class="st2" d="M1318.5,332.1v27.3c0,3,0.8,5.3,2.3,6.9c1.6,1.6,3.7,2.4,6.6,2.4c2.9,0,5.1-0.8,6.6-2.4
							c1.6-1.6,2.3-3.9,2.3-6.9v-27.3h8.9v27.2c0,3.7-0.8,6.9-2.4,9.5c-1.6,2.6-3.8,4.5-6.5,5.8c-2.7,1.3-5.7,2-9.1,2
							c-3.3,0-6.3-0.7-8.9-2c-2.7-1.3-4.8-3.3-6.3-5.8s-2.3-5.8-2.3-9.5v-27.2H1318.5z"/>
						<path class="st2" d="M1382.8,375.1c-2.5-1.1-4.4-2.6-5.8-4.5c-1.4-2-2.2-4.3-2.2-7h9.5c0.1,1.8,0.8,3.2,1.9,4.3
							c1.2,1.1,2.7,1.6,4.8,1.6c2.1,0,3.7-0.5,4.9-1.5c1.2-1,1.8-2.3,1.8-3.9c0-1.3-0.4-2.4-1.2-3.2c-0.8-0.8-1.8-1.5-3-2
							c-1.2-0.5-2.9-1-5-1.6c-2.9-0.8-5.2-1.7-7-2.5c-1.8-0.8-3.3-2.1-4.6-3.7c-1.3-1.7-1.9-3.9-1.9-6.7c0-2.6,0.7-4.9,2-6.8
							c1.3-1.9,3.1-3.4,5.5-4.5c2.4-1,5.1-1.5,8.1-1.5c4.5,0,8.2,1.1,11.1,3.3c2.8,2.2,4.4,5.3,4.7,9.3h-9.7
							c-0.1-1.5-0.7-2.8-1.9-3.8s-2.8-1.5-4.8-1.5c-1.7,0-3.1,0.4-4.1,1.3c-1,0.9-1.5,2.2-1.5,3.9c0,1.2,0.4,2.2,1.2,2.9
							c0.8,0.8,1.7,1.4,2.9,1.9c1.2,0.5,2.8,1,4.9,1.7c2.9,0.8,5.2,1.7,7,2.5c1.8,0.8,3.4,2.1,4.7,3.8c1.3,1.7,2,3.9,2,6.6
							c0,2.4-0.6,4.5-1.8,6.6c-1.2,2-3,3.6-5.4,4.8c-2.4,1.2-5.2,1.8-8.4,1.8C1388.1,376.7,1385.3,376.2,1382.8,375.1z"/>
						<path class="st2" d="M1445.3,332.1v44.1h-8.8v-44.1H1445.3z"/>
						<path class="st2" d="M1513.9,376.2h-8.8l-20-30.3v30.3h-8.8v-44.2h8.8l20,30.3v-30.3h8.8V376.2z"/>
						<path class="st2" d="M1553.6,339.3v11.1h14.8v7h-14.8V369h16.7v7.2h-25.6v-44.2h25.6v7.2H1553.6z"/>
						<path class="st2" d="M1607.3,375.1c-2.5-1.1-4.4-2.6-5.8-4.5c-1.4-2-2.2-4.3-2.2-7h9.5c0.1,1.8,0.8,3.2,1.9,4.3
							c1.2,1.1,2.7,1.6,4.8,1.6c2.1,0,3.7-0.5,4.9-1.5c1.2-1,1.8-2.3,1.8-3.9c0-1.3-0.4-2.4-1.2-3.2c-0.8-0.8-1.8-1.5-3-2
							c-1.2-0.5-2.9-1-5-1.6c-2.9-0.8-5.2-1.7-7-2.5c-1.8-0.8-3.3-2.1-4.6-3.7c-1.3-1.7-1.9-3.9-1.9-6.7c0-2.6,0.7-4.9,2-6.8
							c1.3-1.9,3.1-3.4,5.5-4.5c2.4-1,5.1-1.5,8.1-1.5c4.5,0,8.2,1.1,11.1,3.3c2.8,2.2,4.4,5.3,4.7,9.3h-9.7
							c-0.1-1.5-0.7-2.8-1.9-3.8s-2.8-1.5-4.8-1.5c-1.7,0-3.1,0.4-4.1,1.3c-1,0.9-1.5,2.2-1.5,3.9c0,1.2,0.4,2.2,1.2,2.9
							c0.8,0.8,1.7,1.4,2.9,1.9c1.2,0.5,2.8,1,4.9,1.7c2.9,0.8,5.2,1.7,7,2.5c1.8,0.8,3.4,2.1,4.7,3.8c1.3,1.7,2,3.9,2,6.6
							c0,2.4-0.6,4.5-1.8,6.6c-1.2,2-3,3.6-5.4,4.8c-2.4,1.2-5.2,1.8-8.4,1.8C1612.6,376.7,1609.8,376.2,1607.3,375.1z"/>
						<path class="st2" d="M1667.9,375.1c-2.5-1.1-4.4-2.6-5.8-4.5c-1.4-2-2.2-4.3-2.2-7h9.5c0.1,1.8,0.8,3.2,1.9,4.3
							c1.2,1.1,2.7,1.6,4.8,1.6c2.1,0,3.7-0.5,4.9-1.5c1.2-1,1.8-2.3,1.8-3.9c0-1.3-0.4-2.4-1.2-3.2c-0.8-0.8-1.8-1.5-3-2
							c-1.2-0.5-2.9-1-5-1.6c-2.9-0.8-5.2-1.7-7-2.5c-1.8-0.8-3.3-2.1-4.6-3.7c-1.3-1.7-1.9-3.9-1.9-6.7c0-2.6,0.7-4.9,2-6.8
							c1.3-1.9,3.1-3.4,5.5-4.5c2.4-1,5.1-1.5,8.1-1.5c4.5,0,8.2,1.1,11.1,3.3c2.8,2.2,4.4,5.3,4.7,9.3h-9.7
							c-0.1-1.5-0.7-2.8-1.9-3.8s-2.8-1.5-4.8-1.5c-1.7,0-3.1,0.4-4.1,1.3c-1,0.9-1.5,2.2-1.5,3.9c0,1.2,0.4,2.2,1.2,2.9
							c0.8,0.8,1.7,1.4,2.9,1.9c1.2,0.5,2.8,1,4.9,1.7c2.9,0.8,5.2,1.7,7,2.5c1.8,0.8,3.4,2.1,4.7,3.8c1.3,1.7,2,3.9,2,6.6
							c0,2.4-0.6,4.5-1.8,6.6c-1.2,2-3,3.6-5.4,4.8c-2.4,1.2-5.2,1.8-8.4,1.8C1673.2,376.7,1670.4,376.2,1667.9,375.1z"/>
						<path class="st2" d="M1730.4,339.3v11.1h14.8v7h-14.8V369h16.7v7.2h-25.6v-44.2h25.6v7.2H1730.4z"/>
						<path class="st2" d="M1784.2,375.1c-2.5-1.1-4.4-2.6-5.8-4.5c-1.4-2-2.2-4.3-2.2-7h9.5c0.1,1.8,0.8,3.2,1.9,4.3
							c1.2,1.1,2.7,1.6,4.8,1.6c2.1,0,3.7-0.5,4.9-1.5c1.2-1,1.8-2.3,1.8-3.9c0-1.3-0.4-2.4-1.2-3.2c-0.8-0.8-1.8-1.5-3-2
							c-1.2-0.5-2.9-1-5-1.6c-2.9-0.8-5.2-1.7-7-2.5c-1.8-0.8-3.3-2.1-4.6-3.7c-1.3-1.7-1.9-3.9-1.9-6.7c0-2.6,0.7-4.9,2-6.8
							c1.3-1.9,3.1-3.4,5.5-4.5c2.4-1,5.1-1.5,8.1-1.5c4.5,0,8.2,1.1,11.1,3.3c2.8,2.2,4.4,5.3,4.7,9.3h-9.7
							c-0.1-1.5-0.7-2.8-1.9-3.8c-1.2-1-2.8-1.5-4.8-1.5c-1.7,0-3.1,0.4-4.1,1.3c-1,0.9-1.5,2.2-1.5,3.9c0,1.2,0.4,2.2,1.2,2.9
							c0.8,0.8,1.7,1.4,2.9,1.9c1.2,0.5,2.8,1,4.9,1.7c2.9,0.8,5.2,1.7,7,2.5c1.8,0.8,3.4,2.1,4.7,3.8c1.3,1.7,2,3.9,2,6.6
							c0,2.4-0.6,4.5-1.8,6.6c-1.2,2-3,3.6-5.4,4.8c-2.4,1.2-5.2,1.8-8.4,1.8C1789.5,376.7,1786.7,376.2,1784.2,375.1z"/>
					</g>
				</g>
			</g>
		</g>
	</g>
	<g>
		<g>
			<g>
				<g>
					<path class="st0" d="M764.8,113.6v-15h6.4c1.6,0,2.8,0.1,3.5,0.4s1.3,0.7,1.7,1.4c0.4,0.7,0.7,1.5,0.7,2.4c0,1.1-0.3,2.1-1,2.8
						c-0.7,0.7-1.6,1.2-3,1.4c0.7,0.4,1.2,0.8,1.6,1.3c0.4,0.5,1,1.3,1.7,2.4l1.8,2.9h-3.6l-2.2-3.3c-0.8-1.2-1.3-1.9-1.6-2.2
						c-0.3-0.3-0.6-0.5-0.9-0.6s-0.8-0.2-1.5-0.2h-0.6v6.2H764.8z M767.8,104.9h2.2c1.4,0,2.4-0.1,2.7-0.2c0.4-0.1,0.6-0.3,0.8-0.6
						c0.2-0.3,0.3-0.7,0.3-1.1c0-0.5-0.1-0.9-0.4-1.2c-0.3-0.3-0.6-0.5-1.1-0.6c-0.2,0-1-0.1-2.2-0.1h-2.4V104.9z"/>
				</g>
				<g>
					<path class="st0" d="M771,120.2c-7.6,0-13.9-6.2-13.9-13.9c0-7.6,6.2-13.9,13.9-13.9c7.6,0,13.9,6.2,13.9,13.9
						C784.9,114,778.7,120.2,771,120.2z M771,94.3c-6.7,0-12.1,5.4-12.1,12.1s5.4,12.1,12.1,12.1s12.1-5.4,12.1-12.1
						S777.7,94.3,771,94.3z"/>
				</g>
			</g>
			<g id="XMLID_00000166653905110357183470000010911729382684122776_">
				<g id="XMLID_00000119101440089922567970000015896001400786347196_">
					<path class="st0" d="M771.8,203.6c0-18.5-6.6-34.5-19.9-47.7c-5.4-5.4-11.1-9.6-17.4-12.8v-30.6h-42.9v24.7
						c-7.1,1.4-14.5,4.1-21.3,8c-9.8,5.7-17.6,13.2-23.5,22.6c-5.9-9.5-13.6-17-23.4-22.6c-7.9-4.6-16.1-7.4-24.7-8.6v-24.1h-42.9
						V145c-4.9,2.9-9.6,6.6-14,10.9c-13.1,13.1-19.9,29.2-19.9,47.7c0,18.5,6.6,34.5,19.9,47.7c4.4,4.4,9,8,14,10.9V294h42.9v-22.9
						h40v-69.3H598v28.6H594h-4.4c-7.4,0-13.7-2.5-19.1-7.9c-5.4-5.4-8-11.6-8-19c0-7.4,2.6-13.9,8-19c5.4-5.1,11.6-7.8,19.1-7.8
						c9.9,0,18.7,5.1,23.4,13.6l33.9-19.5l33.9,19.5c4.8-8.4,13.6-13.6,23.4-13.6c7.4,0,13.7,2.6,19.1,7.8c5.4,5.1,8,11.6,8,19.1
						s-2.6,13.6-8,18.9c-5.4,5.4-11.6,7.9-19.1,7.9h-4.4h-4.6v-28.6h-40v69.3h36.4v23.6h42.9V264c6.3-3.2,12.1-7.4,17.4-12.8
						C765.1,238.1,771.8,222.1,771.8,203.6z"/>
				</g>
			</g>
		</g>
	</g>
</g>
<g>
</g>
<g>
</g>
<g>
</g>
<g>
</g>
<g>
</g>
<g>
</g>
<g>
</g>
<g>
</g>
<g>
</g>
<g>
</g>
<g>
</g>
<g>
</g>
<g>
</g>
<g>
</g>
<g>
</g>
</svg>
